<svg width="170" height="51" viewBox="0 0 170 51" fill="none" xmlns="http://www.w3.org/2000/svg">
<g filter="url(#filter0_d_83_1925)">
<path d="M34.5312 21V19.291L36.0449 18.998V8.79297L34.5312 8.5V6.78125H36.0449H40.2637L44.1406 16.6934H44.1992L47.9492 6.78125H53.6914V8.5L52.168 8.79297V18.998L53.6914 19.291V21H47.8027V19.291L49.3945 18.998V16.2734L49.4434 9.85742L49.3848 9.84766L45.1367 20.8047H42.9785L38.6328 9.93555L38.5742 9.94531L38.7402 15.9805V18.998L40.4199 19.291V21H34.5312ZM54.6875 21V19.291L56.0645 18.998V12.4453L54.541 12.1523V10.4336H58.916V18.998L60.2832 19.291V21H54.6875ZM55.9668 8.19727V5.76562H58.916V8.19727H55.9668ZM64.7754 21.2051C63.7272 21.2051 62.8939 20.9251 62.2754 20.3652C61.6569 19.7988 61.3477 19.0306 61.3477 18.0605C61.3477 17.3965 61.5267 16.8138 61.8848 16.3125C62.2493 15.8112 62.7832 15.4173 63.4863 15.1309C64.196 14.8444 65.0684 14.7012 66.1035 14.7012H67.5V13.9199C67.5 13.4121 67.3503 13.002 67.0508 12.6895C66.7578 12.3704 66.3151 12.2109 65.7227 12.2109C65.4167 12.2109 65.1432 12.25 64.9023 12.3281C64.6615 12.3997 64.4401 12.5039 64.2383 12.6406L64.0137 14.0371H61.9629L61.9238 11.293C62.4772 10.9805 63.0762 10.7266 63.7207 10.5312C64.3652 10.3359 65.0846 10.2383 65.8789 10.2383C67.2591 10.2383 68.3496 10.5605 69.1504 11.2051C69.9512 11.8431 70.3516 12.7578 70.3516 13.9492V18.3047C70.3516 18.4479 70.3516 18.5911 70.3516 18.7344C70.3581 18.8711 70.3711 19.0046 70.3906 19.1348L71.4941 19.291V21H67.959C67.8874 20.8177 67.8158 20.6224 67.7441 20.4141C67.6725 20.2057 67.6204 19.9974 67.5879 19.7891C67.2493 20.2188 66.849 20.5638 66.3867 20.8242C65.931 21.0781 65.3939 21.2051 64.7754 21.2051ZM65.5371 19.0957C65.9342 19.0957 66.3118 19.0078 66.6699 18.832C67.028 18.6497 67.3047 18.4121 67.5 18.1191V16.4492H66.0938C65.4688 16.4492 64.9935 16.5924 64.668 16.8789C64.349 17.1654 64.1895 17.5104 64.1895 17.9141C64.1895 18.2917 64.3066 18.5846 64.541 18.793C64.7819 18.9948 65.1139 19.0957 65.5371 19.0957ZM76.9824 21.2051C76.0384 21.2051 75.2181 21.0358 74.5215 20.6973C73.8249 20.3587 73.2845 19.8867 72.9004 19.2812C72.5228 18.6758 72.334 17.9727 72.334 17.1719C72.334 16.4362 72.5293 15.7982 72.9199 15.2578C73.3105 14.7109 73.903 14.1543 74.6973 13.5879C74.7298 13.5618 74.7624 13.5358 74.7949 13.5098C74.834 13.4837 74.8698 13.4609 74.9023 13.4414C74.4596 12.8424 74.1276 12.2956 73.9062 11.8008C73.6914 11.306 73.584 10.8014 73.584 10.2871C73.584 9.5319 73.7435 8.8776 74.0625 8.32422C74.3815 7.77083 74.8307 7.34115 75.4102 7.03516C75.9961 6.72917 76.6797 6.57617 77.4609 6.57617C78.151 6.57617 78.7565 6.72591 79.2773 7.02539C79.8047 7.31836 80.2148 7.71224 80.5078 8.20703C80.8073 8.70182 80.957 9.25521 80.957 9.86719C80.957 10.5052 80.7975 11.0879 80.4785 11.6152C80.1595 12.1426 79.7233 12.6048 79.1699 13.002L78.2617 13.6465L80.957 16.791C81.1914 16.4004 81.3737 15.9772 81.5039 15.5215C81.6341 15.0658 81.6992 14.584 81.6992 14.0762H83.8281C83.8281 14.9746 83.7174 15.8014 83.4961 16.5566C83.2747 17.3118 82.9362 17.9824 82.4805 18.5684L84.5117 20.9512L84.4922 21H81.3281L80.5762 20.1309C80.0228 20.4889 79.4531 20.7591 78.8672 20.9414C78.2812 21.1172 77.653 21.2051 76.9824 21.2051ZM77.1289 19.0176C77.474 19.0176 77.819 18.9753 78.1641 18.8906C78.5091 18.7995 78.8411 18.666 79.1602 18.4902L76.2305 15.0918L76.0449 15.2188C75.7129 15.5312 75.485 15.8372 75.3613 16.1367C75.2441 16.4297 75.1855 16.7259 75.1855 17.0254C75.1855 17.6048 75.3646 18.0833 75.7227 18.4609C76.0807 18.832 76.5495 19.0176 77.1289 19.0176ZM76.9727 12.1035L77.8125 11.5566C78.1771 11.3223 78.4212 11.0814 78.5449 10.834C78.6751 10.5866 78.7402 10.3164 78.7402 10.0234C78.7402 9.69792 78.6198 9.4082 78.3789 9.1543C78.1445 8.90039 77.8353 8.77344 77.4512 8.77344C77.028 8.77344 76.7025 8.91667 76.4746 9.20312C76.2467 9.48307 76.1328 9.83464 76.1328 10.2578C76.1328 10.5378 76.2012 10.8275 76.3379 11.127C76.4811 11.4199 76.6927 11.7454 76.9727 12.1035ZM84.9219 21V19.291L86.4355 18.998V8.79297L84.9219 8.5V6.78125H86.4355H91.2402C92.9134 6.78125 94.2188 7.10677 95.1562 7.75781C96.0938 8.40885 96.5625 9.38216 96.5625 10.6777C96.5625 11.3353 96.3867 11.9245 96.0352 12.4453C95.6901 12.9596 95.1855 13.347 94.5215 13.6074C95.0879 13.7311 95.5599 13.9492 95.9375 14.2617C96.3216 14.5742 96.6081 14.9551 96.7969 15.4043C96.9857 15.847 97.0801 16.332 97.0801 16.8594C97.0801 18.2201 96.6309 19.252 95.7324 19.9551C94.834 20.6517 93.5612 21 91.9141 21H84.9219ZM89.2871 18.8125H91.9141C92.6693 18.8125 93.2454 18.6497 93.6426 18.3242C94.0397 17.9922 94.2383 17.5039 94.2383 16.8594C94.2383 16.3906 94.1634 15.9967 94.0137 15.6777C93.8639 15.3587 93.6328 15.1178 93.3203 14.9551C93.0143 14.7923 92.6172 14.7109 92.1289 14.7109H89.2871V18.8125ZM89.2871 12.7383H91.3379C92.0996 12.7383 92.6855 12.582 93.0957 12.2695C93.5059 11.957 93.7109 11.5013 93.7109 10.9023C93.7109 10.2448 93.5026 9.75977 93.0859 9.44727C92.6758 9.13477 92.0605 8.97852 91.2402 8.97852H89.2871V12.7383ZM103.154 21.2051C102.113 21.2051 101.217 20.9772 100.469 20.5215C99.7201 20.0658 99.1471 19.4342 98.75 18.627C98.3529 17.8132 98.1543 16.8789 98.1543 15.8242V15.6191C98.1543 14.571 98.3529 13.6432 98.75 12.8359C99.1471 12.0221 99.7168 11.3874 100.459 10.9316C101.208 10.4694 102.1 10.2383 103.135 10.2383C104.183 10.2383 105.078 10.4694 105.82 10.9316C106.562 11.3874 107.132 12.0189 107.529 12.8262C107.926 13.6335 108.125 14.5645 108.125 15.6191V15.8242C108.125 16.8789 107.926 17.8132 107.529 18.627C107.132 19.4342 106.562 20.0658 105.82 20.5215C105.078 20.9772 104.189 21.2051 103.154 21.2051ZM103.154 19.0176C103.649 19.0176 104.053 18.8841 104.365 18.6172C104.678 18.3503 104.909 17.9792 105.059 17.5039C105.208 17.0221 105.283 16.4622 105.283 15.8242V15.6191C105.283 14.9941 105.208 14.444 105.059 13.9688C104.909 13.487 104.674 13.1126 104.355 12.8457C104.043 12.5723 103.636 12.4355 103.135 12.4355C102.646 12.4355 102.243 12.5723 101.924 12.8457C101.605 13.1126 101.37 13.487 101.221 13.9688C101.077 14.444 101.006 14.9941 101.006 15.6191V15.8242C101.006 16.4622 101.077 17.0221 101.221 17.5039C101.37 17.9857 101.605 18.36 101.924 18.627C102.243 18.8874 102.653 19.0176 103.154 19.0176ZM115.42 21.2051C114.762 21.2051 114.202 21.0781 113.74 20.8242C113.278 20.5638 112.891 20.1895 112.578 19.7012L112.373 21H109.912V7.77734L108.398 7.48438V5.76562H112.754V11.5566C113.06 11.1335 113.434 10.8079 113.877 10.5801C114.326 10.3522 114.847 10.2383 115.439 10.2383C116.292 10.2383 117.015 10.4694 117.607 10.9316C118.206 11.3874 118.662 12.0319 118.975 12.8652C119.287 13.6986 119.443 14.6784 119.443 15.8047V16.0098C119.443 17.0579 119.287 17.9727 118.975 18.7539C118.662 19.5286 118.206 20.1309 117.607 20.5605C117.008 20.9902 116.279 21.2051 115.42 21.2051ZM114.551 18.9883C115.28 18.9883 115.804 18.7311 116.123 18.2168C116.442 17.696 116.602 16.9603 116.602 16.0098V15.8047C116.602 15.1146 116.53 14.5221 116.387 14.0273C116.25 13.526 116.032 13.1387 115.732 12.8652C115.439 12.5918 115.055 12.4551 114.58 12.4551C114.15 12.4551 113.783 12.556 113.477 12.7578C113.171 12.9596 112.93 13.2331 112.754 13.5781V17.9922C112.949 18.3177 113.197 18.5651 113.496 18.7344C113.802 18.9036 114.154 18.9883 114.551 18.9883ZM125.527 8.43164H125.449H123.242L120.547 5.82422L120.566 5.76562H123.584L125.527 8.43164ZM131.064 21.2051C130.277 21.2051 129.541 21.1302 128.857 20.9805C128.18 20.8307 127.529 20.6159 126.904 20.3359L126.875 17.3477H128.857L129.238 18.8711C129.46 18.9818 129.701 19.0697 129.961 19.1348C130.228 19.1999 130.531 19.2324 130.869 19.2324C131.507 19.2324 131.956 19.1283 132.217 18.9199C132.477 18.7116 132.607 18.4512 132.607 18.1387C132.607 17.8457 132.467 17.5885 132.188 17.3672C131.914 17.1393 131.364 16.9408 130.537 16.7715C129.287 16.5111 128.366 16.1074 127.773 15.5605C127.181 15.0137 126.885 14.3138 126.885 13.4609C126.885 12.875 127.031 12.3411 127.324 11.8594C127.624 11.3776 128.076 10.9902 128.682 10.6973C129.294 10.4043 130.075 10.2578 131.025 10.2578C131.82 10.2578 132.546 10.3359 133.203 10.4922C133.867 10.6419 134.424 10.8405 134.873 11.0879L134.902 13.9785H132.93L132.627 12.5918C132.451 12.4616 132.243 12.3639 132.002 12.2988C131.768 12.2337 131.501 12.2012 131.201 12.2012C130.7 12.2012 130.316 12.3021 130.049 12.5039C129.782 12.7057 129.648 12.9661 129.648 13.2852C129.648 13.4674 129.694 13.6367 129.785 13.793C129.883 13.9492 130.072 14.0957 130.352 14.2324C130.632 14.3691 131.038 14.4993 131.572 14.623C132.881 14.9225 133.835 15.3229 134.434 15.8242C135.033 16.319 135.332 17.0156 135.332 17.9141C135.332 18.8971 134.974 19.6914 134.258 20.2969C133.548 20.9023 132.484 21.2051 131.064 21.2051Z" fill="white"/>
<path d="M31.0129 27.106H34.2469L39.7029 42H36.0289L34.9289 38.414H30.1109L28.9669 42H25.3589L31.0129 27.106ZM34.1149 35.73C33.9682 35.3047 33.8142 34.8647 33.6529 34.41C33.5062 33.9407 33.3595 33.486 33.2129 33.046C33.0809 32.606 32.9562 32.1953 32.8389 31.814C32.7215 31.418 32.6189 31.088 32.5309 30.824C32.4429 31.1027 32.3402 31.44 32.2229 31.836C32.1055 32.2173 31.9735 32.628 31.8269 33.068C31.6949 33.508 31.5482 33.9553 31.3869 34.41C31.2402 34.8647 31.0935 35.3047 30.9469 35.73H34.1149ZM41.032 27.106C41.1346 27.106 41.3693 27.106 41.736 27.106C42.1173 27.0913 42.55 27.084 43.034 27.084C43.518 27.084 44.0166 27.084 44.53 27.084C45.058 27.0693 45.5273 27.062 45.938 27.062C47.1846 27.062 48.2553 27.2527 49.15 27.634C50.0593 28.0007 50.8073 28.5213 51.394 29.196C51.9806 29.8707 52.4133 30.6773 52.692 31.616C52.9706 32.54 53.11 33.5593 53.11 34.674C53.11 35.818 52.9633 36.8447 52.67 37.754C52.3913 38.6633 51.9513 39.4407 51.35 40.086C50.7633 40.7167 50.0153 41.2007 49.106 41.538C48.1966 41.8753 47.1186 42.044 45.872 42.044C45.4466 42.044 45.058 42.0367 44.706 42.022C44.354 42.022 43.9946 42.022 43.628 42.022C43.2613 42.022 42.8726 42.0147 42.462 42C42.0513 42 41.5746 42 41.032 42V27.106ZM45.784 29.614C45.5346 29.614 45.344 29.6213 45.212 29.636C45.08 29.636 44.8966 29.636 44.662 29.636V39.47C44.8526 39.4847 45.0213 39.492 45.168 39.492C45.3146 39.492 45.52 39.492 45.784 39.492C46.4293 39.492 46.9646 39.382 47.39 39.162C47.83 38.942 48.182 38.6267 48.446 38.216C48.71 37.8053 48.9006 37.3067 49.018 36.72C49.1353 36.1187 49.194 35.4513 49.194 34.718C49.194 31.3153 48.0573 29.614 45.784 29.614ZM61.8481 42H58.7681L53.2021 27.106H57.0301L59.0101 33.046C59.3034 33.9407 59.5601 34.784 59.7801 35.576C60.0001 36.3533 60.1834 37.0207 60.3301 37.578C60.4768 37.0207 60.6601 36.3607 60.8801 35.598C61.1001 34.8353 61.3714 33.992 61.6941 33.068L63.7181 27.106H67.4141L61.8481 42ZM68.7253 27.106H78.2073V29.768H72.3553V32.958H77.2173L76.7993 35.576H72.3553V39.338H78.5153V42H68.7253V27.106ZM89.0624 27.106H92.6924V42H89.5904L85.3444 35.576C85.2564 35.444 85.1318 35.2533 84.9704 35.004C84.8238 34.7547 84.6624 34.498 84.4864 34.234C84.3251 33.9553 84.1638 33.6913 84.0024 33.442C83.8558 33.178 83.7311 32.9653 83.6284 32.804C83.6431 33.024 83.6578 33.2953 83.6724 33.618C83.7018 33.926 83.7238 34.2413 83.7384 34.564C83.7678 34.8867 83.7898 35.202 83.8044 35.51C83.8191 35.818 83.8264 36.0747 83.8264 36.28L83.8924 42H80.2624V27.106H83.2324L87.5224 33.486C87.6544 33.6913 87.8011 33.926 87.9624 34.19C88.1238 34.4393 88.2851 34.696 88.4464 34.96C88.6224 35.224 88.7838 35.4807 88.9304 35.73C89.0771 35.9647 89.2018 36.17 89.3044 36.346C89.2898 36.1113 89.2751 35.84 89.2604 35.532C89.2458 35.224 89.2238 34.9087 89.1944 34.586C89.1798 34.2487 89.1651 33.926 89.1504 33.618C89.1358 33.31 89.1284 33.0387 89.1284 32.804L89.0624 27.106ZM105.176 27.106L104.714 29.768H101.282V42H97.6524V29.768H94.1104V27.106H105.176ZM109.969 27.106V35.972C109.969 36.6173 110.035 37.1527 110.167 37.578C110.313 38.0033 110.504 38.348 110.739 38.612C110.988 38.876 111.281 39.0667 111.619 39.184C111.956 39.2867 112.315 39.338 112.697 39.338C113.489 39.338 114.09 39.0593 114.501 38.502C114.926 37.93 115.139 37.0867 115.139 35.972V27.106H118.769V36.17C118.769 36.962 118.659 37.7173 118.439 38.436C118.219 39.1547 117.852 39.7927 117.339 40.35C116.84 40.8927 116.187 41.3253 115.381 41.648C114.574 41.9707 113.584 42.132 112.411 42.132C111.281 42.132 110.328 41.9707 109.551 41.648C108.788 41.3107 108.172 40.8707 107.703 40.328C107.233 39.7707 106.889 39.1327 106.669 38.414C106.463 37.6953 106.361 36.9473 106.361 36.17V27.106H109.969ZM121.276 27.106C121.408 27.106 121.672 27.106 122.068 27.106C122.464 27.0913 122.904 27.084 123.388 27.084C123.872 27.084 124.341 27.084 124.796 27.084C125.251 27.0693 125.603 27.062 125.852 27.062C127.729 27.062 129.137 27.4213 130.076 28.14C131.015 28.8587 131.484 29.922 131.484 31.33C131.484 32.2687 131.257 33.046 130.802 33.662C130.347 34.2633 129.731 34.7327 128.954 35.07C129.394 35.3193 129.783 35.6493 130.12 36.06C130.457 36.4707 130.78 36.9693 131.088 37.556C131.396 38.128 131.704 38.788 132.012 39.536C132.335 40.284 132.687 41.1053 133.068 42H129.174C128.705 40.9733 128.309 40.0713 127.986 39.294C127.663 38.502 127.363 37.842 127.084 37.314C126.805 36.7713 126.527 36.368 126.248 36.104C125.984 35.8253 125.661 35.686 125.28 35.686H124.906V42H121.276V27.106ZM124.906 33.42H125.83C126.343 33.42 126.776 33.266 127.128 32.958C127.495 32.6353 127.678 32.1367 127.678 31.462C127.678 31.1833 127.641 30.9267 127.568 30.692C127.509 30.4427 127.407 30.23 127.26 30.054C127.113 29.8633 126.908 29.7167 126.644 29.614C126.395 29.4967 126.087 29.438 125.72 29.438H124.906V33.42ZM134.446 27.106H143.928V29.768H138.076V32.958H142.938L142.52 35.576H138.076V39.338H144.236V42H134.446V27.106Z" fill="white"/>
</g>
<defs>
<filter id="filter0_d_83_1925" x="-4" y="0" width="178" height="58" filterUnits="userSpaceOnUse" color-interpolation-filters="sRGB">
<feFlood flood-opacity="0" result="BackgroundImageFix"/>
<feColorMatrix in="SourceAlpha" type="matrix" values="0 0 0 0 0 0 0 0 0 0 0 0 0 0 0 0 0 0 127 0" result="hardAlpha"/>
<feOffset dy="4"/>
<feGaussianBlur stdDeviation="2"/>
<feComposite in2="hardAlpha" operator="out"/>
<feColorMatrix type="matrix" values="0 0 0 0 0 0 0 0 0 0 0 0 0 0 0 0 0 0 0.25 0"/>
<feBlend mode="normal" in2="BackgroundImageFix" result="effect1_dropShadow_83_1925"/>
<feBlend mode="normal" in="SourceGraphic" in2="effect1_dropShadow_83_1925" result="shape"/>
</filter>
</defs>
</svg>
