<svg width="119" height="120" viewBox="0 0 119 120" fill="none" xmlns="http://www.w3.org/2000/svg">
<path d="M103.263 94.1509C103.263 114.358 135.155 0 108.138 0C81.1215 0 0 106.621 0 86.4142C0 66.2074 14.0777 49.3079 41.0944 49.3079C68.111 49.3079 103.263 73.9441 103.263 94.1509Z" fill="#FF70A6"/>
<ellipse cx="54.7926" cy="79.528" rx="15.8055" ry="20.4718" fill="#FFD670"/>
<ellipse cx="55.8461" cy="73.6789" rx="10.537" ry="10.7233" fill="#68A691"/>
<path d="M33.3226 105.652C33.7546 105.652 34.1686 105.688 34.5646 105.76C34.9726 105.832 35.3506 105.922 35.6986 106.03C36.0466 106.138 36.3586 106.264 36.6346 106.408C36.9226 106.54 37.1686 106.678 37.3726 106.822L36.3286 108.802C36.1846 108.73 36.0106 108.64 35.8066 108.532C35.6026 108.412 35.3806 108.298 35.1406 108.19C34.9126 108.082 34.6726 107.992 34.4206 107.92C34.1806 107.848 33.9466 107.812 33.7186 107.812C33.2986 107.812 32.9866 107.902 32.7826 108.082C32.5786 108.25 32.4766 108.466 32.4766 108.73C32.4886 108.934 32.5366 109.114 32.6206 109.27C32.7046 109.426 32.8306 109.582 32.9986 109.738C33.1666 109.882 33.3826 110.026 33.6466 110.17C33.9106 110.314 34.2346 110.464 34.6186 110.62C35.0986 110.824 35.5186 111.034 35.8786 111.25C36.2386 111.466 36.5326 111.712 36.7606 111.988C37.0006 112.264 37.1806 112.576 37.3006 112.924C37.4206 113.272 37.4806 113.674 37.4806 114.13C37.4806 114.682 37.3786 115.204 37.1746 115.696C36.9826 116.176 36.7006 116.596 36.3286 116.956C35.9566 117.316 35.5066 117.598 34.9786 117.802C34.4506 118.006 33.8566 118.108 33.1966 118.108C32.7286 118.108 32.2786 118.066 31.8466 117.982C31.4266 117.898 31.0366 117.79 30.6766 117.658C30.3166 117.526 29.9866 117.388 29.6866 117.244C29.3866 117.088 29.1286 116.944 28.9126 116.812L29.8846 114.688C29.9686 114.748 30.1246 114.85 30.3526 114.994C30.5806 115.126 30.8386 115.264 31.1266 115.408C31.4146 115.54 31.7086 115.66 32.0086 115.768C32.3086 115.876 32.5786 115.93 32.8186 115.93C33.3226 115.93 33.6886 115.816 33.9166 115.588C34.1566 115.348 34.2766 115.012 34.2766 114.58C34.2766 114.148 34.1266 113.824 33.8266 113.608C33.5386 113.38 33.1246 113.158 32.5846 112.942C32.0566 112.726 31.5886 112.498 31.1806 112.258C30.7726 112.018 30.4246 111.748 30.1366 111.448C29.8606 111.148 29.6446 110.812 29.4886 110.44C29.3446 110.068 29.2726 109.636 29.2726 109.144C29.2726 108.604 29.3806 108.124 29.5966 107.704C29.8246 107.272 30.1246 106.906 30.4966 106.606C30.8686 106.294 31.2946 106.06 31.7746 105.904C32.2666 105.736 32.7826 105.652 33.3226 105.652ZM38.4772 113.734C38.4772 112.93 38.5912 112.222 38.8192 111.61C39.0592 110.986 39.3832 110.47 39.7912 110.062C40.2112 109.642 40.6972 109.324 41.2492 109.108C41.8012 108.892 42.4012 108.784 43.0492 108.784C43.6132 108.784 44.0932 108.856 44.4892 109C44.8852 109.132 45.2092 109.324 45.4612 109.576C45.7132 109.816 45.8992 110.104 46.0192 110.44C46.1392 110.764 46.1992 111.118 46.1992 111.502C46.1992 111.934 46.0912 112.342 45.8752 112.726C45.6592 113.11 45.3472 113.452 44.9392 113.752C44.5432 114.04 44.0572 114.28 43.4812 114.472C42.9172 114.664 42.2752 114.79 41.5552 114.85C41.6392 115.21 41.7892 115.504 42.0052 115.732C42.2332 115.948 42.5752 116.056 43.0312 116.056C43.2952 116.056 43.5772 116.026 43.8772 115.966C44.1772 115.906 44.4532 115.84 44.7052 115.768C45.0052 115.684 45.2992 115.588 45.5872 115.48L46.1272 117.352C45.8032 117.508 45.4492 117.646 45.0652 117.766C44.7412 117.862 44.3632 117.952 43.9312 118.036C43.5112 118.12 43.0612 118.162 42.5812 118.162C41.8492 118.162 41.2192 118.054 40.6912 117.838C40.1752 117.622 39.7492 117.322 39.4132 116.938C39.0892 116.554 38.8492 116.092 38.6932 115.552C38.5492 115 38.4772 114.394 38.4772 113.734ZM42.6892 110.818C42.4612 110.818 42.2632 110.884 42.0952 111.016C41.9392 111.148 41.8132 111.322 41.7172 111.538C41.6212 111.754 41.5492 111.994 41.5012 112.258C41.4532 112.522 41.4232 112.78 41.4112 113.032C41.7712 113.02 42.0712 112.966 42.3112 112.87C42.5632 112.774 42.7672 112.654 42.9232 112.51C43.0792 112.366 43.1932 112.21 43.2652 112.042C43.3372 111.874 43.3732 111.718 43.3732 111.574C43.3732 111.346 43.3072 111.166 43.1752 111.034C43.0552 110.89 42.8932 110.818 42.6892 110.818ZM46.6087 109.036H48.0847L48.3907 107.182L50.8567 106.642V109.036H52.9807L52.6387 111.124H50.8567V115.138C50.8567 115.666 51.1327 115.93 51.6847 115.93C51.9847 115.93 52.2727 115.9 52.5487 115.84C52.6927 115.804 52.8367 115.768 52.9807 115.732L53.4667 117.64C53.2267 117.724 52.8907 117.82 52.4587 117.928C52.0387 118.024 51.5227 118.072 50.9107 118.072C50.0107 118.072 49.3027 117.886 48.7867 117.514C48.2827 117.142 48.0307 116.512 48.0307 115.624V111.124H46.6087V109.036ZM58.1078 105.652C58.5398 105.652 58.9538 105.688 59.3498 105.76C59.7578 105.832 60.1358 105.922 60.4838 106.03C60.8318 106.138 61.1438 106.264 61.4198 106.408C61.7078 106.54 61.9538 106.678 62.1578 106.822L61.1138 108.802C60.9698 108.73 60.7958 108.64 60.5918 108.532C60.3878 108.412 60.1658 108.298 59.9258 108.19C59.6978 108.082 59.4578 107.992 59.2058 107.92C58.9658 107.848 58.7318 107.812 58.5038 107.812C58.0838 107.812 57.7718 107.902 57.5678 108.082C57.3638 108.25 57.2618 108.466 57.2618 108.73C57.2738 108.934 57.3218 109.114 57.4058 109.27C57.4898 109.426 57.6158 109.582 57.7838 109.738C57.9518 109.882 58.1678 110.026 58.4318 110.17C58.6958 110.314 59.0198 110.464 59.4038 110.62C59.8838 110.824 60.3038 111.034 60.6638 111.25C61.0238 111.466 61.3178 111.712 61.5458 111.988C61.7858 112.264 61.9658 112.576 62.0858 112.924C62.2058 113.272 62.2658 113.674 62.2658 114.13C62.2658 114.682 62.1638 115.204 61.9598 115.696C61.7678 116.176 61.4858 116.596 61.1138 116.956C60.7418 117.316 60.2918 117.598 59.7638 117.802C59.2358 118.006 58.6418 118.108 57.9818 118.108C57.5138 118.108 57.0638 118.066 56.6318 117.982C56.2118 117.898 55.8218 117.79 55.4618 117.658C55.1018 117.526 54.7718 117.388 54.4718 117.244C54.1718 117.088 53.9138 116.944 53.6978 116.812L54.6698 114.688C54.7538 114.748 54.9098 114.85 55.1378 114.994C55.3658 115.126 55.6238 115.264 55.9118 115.408C56.1998 115.54 56.4938 115.66 56.7938 115.768C57.0938 115.876 57.3638 115.93 57.6038 115.93C58.1078 115.93 58.4738 115.816 58.7018 115.588C58.9418 115.348 59.0618 115.012 59.0618 114.58C59.0618 114.148 58.9118 113.824 58.6118 113.608C58.3238 113.38 57.9098 113.158 57.3698 112.942C56.8418 112.726 56.3738 112.498 55.9658 112.258C55.5578 112.018 55.2098 111.748 54.9218 111.448C54.6458 111.148 54.4298 110.812 54.2738 110.44C54.1298 110.068 54.0578 109.636 54.0578 109.144C54.0578 108.604 54.1658 108.124 54.3818 107.704C54.6098 107.272 54.9098 106.906 55.2818 106.606C55.6538 106.294 56.0798 106.06 56.5598 105.904C57.0518 105.736 57.5678 105.652 58.1078 105.652ZM71.3624 113.662C71.3624 114.382 71.4104 114.982 71.5064 115.462C71.6024 115.942 71.7164 116.326 71.8484 116.614C71.9924 116.962 72.1604 117.232 72.3524 117.424L70.0664 118.144C69.9344 118.024 69.8144 117.874 69.7064 117.694C69.6104 117.538 69.5144 117.352 69.4184 117.136C69.3344 116.908 69.2624 116.644 69.2024 116.344C68.9984 116.908 68.6984 117.346 68.3024 117.658C67.9064 117.958 67.3844 118.108 66.7364 118.108C66.1484 118.108 65.6324 118 65.1884 117.784C64.7564 117.568 64.3964 117.268 64.1084 116.884C63.8204 116.488 63.6044 116.014 63.4604 115.462C63.3284 114.91 63.2624 114.298 63.2624 113.626C63.2624 112.942 63.3704 112.306 63.5864 111.718C63.8144 111.13 64.1264 110.626 64.5224 110.206C64.9184 109.774 65.3924 109.438 65.9444 109.198C66.4964 108.958 67.1084 108.838 67.7804 108.838C68.1524 108.838 68.5484 108.868 68.9684 108.928C69.3884 108.976 69.7724 109.036 70.1204 109.108C70.4684 109.168 70.7564 109.228 70.9844 109.288C71.2244 109.336 71.3504 109.36 71.3624 109.36V113.662ZM67.2044 116.02C67.3844 116.02 67.5524 115.942 67.7084 115.786C67.8764 115.63 68.0204 115.42 68.1404 115.156C68.2604 114.892 68.3504 114.592 68.4104 114.256C68.4824 113.908 68.5184 113.542 68.5184 113.158V111.07C68.4344 111.034 68.3144 111.004 68.1584 110.98C68.0144 110.944 67.8884 110.926 67.7804 110.926C67.4924 110.926 67.2524 110.992 67.0604 111.124C66.8684 111.244 66.7124 111.418 66.5924 111.646C66.4844 111.862 66.4064 112.126 66.3584 112.438C66.3104 112.75 66.2864 113.086 66.2864 113.446C66.2864 113.782 66.2924 114.106 66.3044 114.418C66.3164 114.718 66.3524 114.988 66.4124 115.228C66.4844 115.468 66.5804 115.66 66.7004 115.804C66.8204 115.948 66.9884 116.02 67.2044 116.02ZM75.7894 118.072C75.1054 118.072 74.5534 117.898 74.1334 117.55C73.7134 117.19 73.5034 116.686 73.5034 116.038V108.964H76.3474V115.228C76.3474 115.504 76.3894 115.69 76.4734 115.786C76.5574 115.882 76.6834 115.93 76.8514 115.93C76.9474 115.93 77.0434 115.924 77.1394 115.912C77.2354 115.888 77.2954 115.87 77.3194 115.858L77.5714 117.64C77.5594 117.652 77.5054 117.682 77.4094 117.73C77.3134 117.766 77.1874 117.814 77.0314 117.874C76.8754 117.922 76.6894 117.964 76.4734 118C76.2574 118.048 76.0294 118.072 75.7894 118.072ZM74.9614 104.626C75.4654 104.626 75.8494 104.776 76.1134 105.076C76.3774 105.376 76.5094 105.754 76.5094 106.21C76.5094 106.678 76.3714 107.068 76.0954 107.38C75.8314 107.692 75.4294 107.848 74.8894 107.848C74.3854 107.848 73.9954 107.698 73.7194 107.398C73.4554 107.086 73.3234 106.72 73.3234 106.3C73.3234 105.82 73.4614 105.424 73.7374 105.112C74.0134 104.788 74.4214 104.626 74.9614 104.626ZM81.0122 118.072C80.5922 118.072 80.2322 118.012 79.9322 117.892C79.6442 117.772 79.3982 117.61 79.1942 117.406C79.0022 117.19 78.8582 116.944 78.7622 116.668C78.6782 116.392 78.6362 116.092 78.6362 115.768V105.436L81.4802 104.95V115.156C81.4802 115.444 81.5282 115.648 81.6242 115.768C81.7322 115.876 81.9242 115.93 82.2002 115.93C82.3322 115.93 82.4762 115.918 82.6322 115.894C82.8002 115.87 82.9502 115.846 83.0822 115.822L83.3522 117.604C83.1722 117.688 82.8662 117.79 82.4342 117.91C82.0142 118.018 81.5402 118.072 81.0122 118.072Z" fill="black"/>
</svg>
